<svg id="eye-cloase" xmlns="http://www.w3.org/2000/svg" version="1.1" viewBox="0 0 1024 1024">
  <path fill="#888888" d="M963.9,427.7c-33.2-54.3-74.6-101-124.1-140.1l-45.7,45.7c44.1,34.4,82.7,77.4,115.8,128.8-44.2,68.2-99.7,122.5-166.4,163-66.7,40.4-139,60.6-216.9,60.6s-52.6-2.4-77.9-7.1l-52.8,52.8c42.4,12.1,86,18.1,130.7,18.1,87.5,0,170.6-23,249.3-69.1,78.7-46.1,141.3-107.4,187.9-183.9,6.6-11.6,10-23.1,10-34.4s-3.3-22.8-10-34.4Z"/>
  <path fill="#888888" d="M684.7,556.2c43.7-43.8,65.6-96.4,65.6-158s-.3-13.5-.9-20.2l-242.9,242.9c6.6.5,13.4.8,20.2.8,61.6,0,114.2-21.8,158-65.6Z"/>
  <path fill="#888888" d="M862.8,148.7l-58-58-113.2,113.2c-53.1-19.5-108-29.2-164.8-29.2-87.5,0-170.6,23.1-249.3,69.4-78.7,46.3-141.3,107.5-187.9,183.7-6.6,11.6-10,23.1-10,34.4s3.3,22.8,10,34.4c38.8,63.5,88.8,116.6,149.9,159.3l-90.9,90.9,58,58L862.8,148.7ZM419.6,291.2c29.8-29.8,65.5-44.7,107.1-44.7,6.7,0,12.4,2.3,17,7,4.6,4.7,7,10.3,7,17,0,6.7-2.3,12.4-7,17-4.7,4.6-10.3,7-17,7-28.6,0-53,10.2-73.3,30.5s-30.5,44.7-30.5,73.3-2.3,12.4-7,17c-4.6,4.6-10.3,6.9-17,7-6.7,0-12.3-2.3-17-7-4.6-4.7-7-10.3-7-17,0-41.6,14.9-77.3,44.7-107.1ZM143.4,462.1c50.6-78.5,114-137.3,190.2-176.2-20.3,34.6-30.5,72.1-30.5,112.3s17.2,102.1,51.4,142.6l-68.8,68.8c-56.1-38.5-103.6-87.6-142.4-147.5Z"/>
</svg>